<?xml version="1.0" encoding="UTF-8" standalone="no"?>
<!-- Created with Inkscape (http://www.inkscape.org/) -->

<svg
   xmlns:dc="http://purl.org/dc/elements/1.1/"
   xmlns:cc="http://creativecommons.org/ns#"
   xmlns:rdf="http://www.w3.org/1999/02/22-rdf-syntax-ns#"
   xmlns:svg="http://www.w3.org/2000/svg"
   xmlns="http://www.w3.org/2000/svg"
   xmlns:xlink="http://www.w3.org/1999/xlink"
   xmlns:sodipodi="http://sodipodi.sourceforge.net/DTD/sodipodi-0.dtd"
   xmlns:inkscape="http://www.inkscape.org/namespaces/inkscape"
   width="588mm"
   height="235mm"
   viewBox="0 0 588 235"
   version="1.1"
   id="svg4971"
   inkscape:export-filename="C:\Users\subirawan13\Pictures\unilever\New folder\ades_new.png"
   inkscape:export-xdpi="96.3228"
   inkscape:export-ydpi="96.3228"
   inkscape:version="0.92.3 (2405546, 2018-03-11)"
   sodipodi:docname="ADES-NEW.svg">
  <defs
     id="defs4965">
    <linearGradient
       inkscape:collect="always"
       id="linearGradient5606">
      <stop
         style="stop-color:#00d400;stop-opacity:1;"
         offset="0"
         id="stop5602" />
      <stop
         style="stop-color:#abc837;stop-opacity:1"
         offset="1"
         id="stop5604" />
    </linearGradient>
    <radialGradient
       inkscape:collect="always"
       xlink:href="#linearGradient5606"
       id="radialGradient5610"
       cx="878.09558"
       cy="632.89062"
       fx="878.09558"
       fy="632.89062"
       r="339.56042"
       gradientTransform="matrix(0.19793996,-0.14559802,0.09010496,0.11562042,-81.038436,440.436)"
       gradientUnits="userSpaceOnUse" />
  </defs>
  <sodipodi:namedview
     id="base"
     pagecolor="#ffffff"
     bordercolor="#666666"
     borderopacity="1.0"
     inkscape:pageopacity="0.0"
     inkscape:pageshadow="2"
     inkscape:zoom="0.175"
     inkscape:cx="1642.8608"
     inkscape:cy="313.54734"
     inkscape:document-units="mm"
     inkscape:current-layer="flowRoot5516"
     showgrid="false"
     units="mm"
     width="421mm"
     inkscape:window-width="1366"
     inkscape:window-height="745"
     inkscape:window-x="-8"
     inkscape:window-y="-8"
     inkscape:window-maximized="1">
    <inkscape:grid
       type="xygrid"
       id="grid5533" />
  </sodipodi:namedview>
  <metadata
     id="metadata4968">
    <rdf:RDF>
      <cc:Work
         rdf:about="">
        <dc:format>image/svg+xml</dc:format>
        <dc:type
           rdf:resource="http://purl.org/dc/dcmitype/StillImage" />
        <dc:title />
      </cc:Work>
    </rdf:RDF>
  </metadata>
  <g
     inkscape:label="Layer 1"
     inkscape:groupmode="layer"
     id="layer1"
     transform="translate(0,-62)">
    <g
       aria-label="ades"
       transform="matrix(1.508067,0,0,1.5522714,-182.94148,-328.7648)"
       style="font-style:normal;font-variant:normal;font-weight:normal;font-stretch:normal;font-size:42.66666794px;line-height:1.25;font-family:'VAG Round';-inkscape-font-specification:'VAG Round';letter-spacing:0px;word-spacing:0px;fill:#000000;fill-opacity:1;stroke:none"
       id="flowRoot5516">
      <g
         id="g5626"
         transform="matrix(1.184522,0,0,1.3346492,-15.301866,-160.00275)"
         inkscape:export-xdpi="96.3228"
         inkscape:export-ydpi="96.3228">
        <ellipse
           ry="31.650948"
           rx="34.973503"
           cy="363.49707"
           cx="183.92944"
           id="path5612"
           style="opacity:1;fill:#2ca02c;fill-opacity:1;stroke:none;stroke-width:11.77490044;stroke-linecap:round;stroke-linejoin:round;stroke-miterlimit:4;stroke-dasharray:none;stroke-opacity:1;paint-order:markers stroke fill" />
        <path
           style="opacity:1;fill:#a3de18;fill-opacity:1;stroke:none;stroke-width:0.17825069px;stroke-linecap:butt;stroke-linejoin:miter;stroke-opacity:1"
           d="m 215.38641,314.42023 c -9.69363,4.44445 -22.66439,9.67475 -31.21818,17.38817 0.84091,0.80286 1.56743,1.67038 2.1223,2.63053 4.57317,8.44914 -0.94247,19.52517 -2.30509,28.83345 0.028,0.11638 0.0578,0.23495 0.0847,0.35021 l 4.94769,-4.18583 c 5.84256,-4.95581 11.94776,-10.28036 20.66127,-11.83479 1.69,-0.12429 3.34304,-0.0587 4.96625,0.16113 0.37651,-0.91683 0.658,-1.95021 0.94954,-3.2414 2.10581,-9.10417 0.64843,-20.72155 -0.20862,-30.10147 z m -0.74092,33.34287 c -0.57885,1.40943 -1.38443,2.54084 -2.81337,3.88988 -7.71504,7.25716 -16.92188,8.5135 -27.76184,11.96961 0.0236,0.0171 0.0474,0.0354 0.071,0.0526 2.84938,0.67402 5.66896,1.43177 8.24054,2.21342 10.82037,2.72148 17.72587,6.98608 21.23581,13.64141 0.63792,-0.0773 1.28017,-0.19248 1.92715,-0.35387 10.92977,-2.99321 21.47369,-9.97232 31.62052,-15.71036 -11.01435,-4.81324 -21.0169,-14.14469 -32.51982,-15.70269 z m -1.02785,31.76692 c -11.12078,1.34709 -20.87113,-9.5973 -29.47635,-15.85483 -0.0342,-0.008 -0.068,-0.0166 -0.10228,-0.0247 -0.0269,0.0261 -0.0548,0.0515 -0.082,0.0776 l 1.48078,6.3936 c 1.30545,5.80882 2.90552,13.91268 1.63259,20.08694 -0.5422,1.86123 -1.55529,3.47181 -2.96627,4.96381 1.19294,1.16721 2.64087,2.26551 4.31523,3.35892 8.40389,5.46359 17.799,9.24249 27.20442,14.03523 l 0.75041,-21.89757 c -0.19464,-4.30848 -1.09625,-7.99084 -2.75657,-11.13902 z m -29.51349,15.64244 c -1.60749,-1.5728 -2.75007,-3.27151 -3.34129,-5.25776 -1.28633,-6.10607 0.33052,-14.12024 1.6497,-19.86488 l 1.48224,-6.26278 c -6.02836,5.79573 -13.11435,10.59651 -20.38494,14.09681 -3.19252,1.75086 -6.64254,1.91699 -10.01624,1.33358 -0.46012,1.13626 -0.78717,2.32614 -1.02491,3.56498 -0.84845,4.47913 -0.64303,8.16854 -0.49809,12.7902 l 0.53486,17.05393 c 9.30756,-4.84629 18.67163,-8.18073 26.98814,-13.70533 1.82059,-1.21482 3.36903,-2.43596 4.61053,-3.74875 z m -30.61053,-15.95503 c 0.50016,-1.23508 1.15787,-2.40663 2.03711,-3.50639 5.47496,-5.8774 18.84294,-8.62477 28.40229,-12.08578 l -12.47496,-4.0134 c -8.08996,-2.10138 -13.78504,-4.97266 -16.73781,-9.96425 -0.26655,-0.63568 -0.50624,-1.28924 -0.72381,-1.95709 -0.48083,0.0487 -0.97778,0.10845 -1.49461,0.18176 -10.40512,2.82831 -21.96555,9.80178 -31.56844,15.59351 7.56771,4.27681 15.35613,9.24324 23.36067,12.73461 2.7992,1.20899 5.96431,2.45756 9.19956,3.01703 z m 0.50282,-31.52691 c 7.57783,-0.76672 10.89143,1.47464 16.34058,5.01009 3.27547,1.86446 5.82322,4.23593 8.78048,6.73615 l 4.83082,4.08429 c 0.0123,-0.0829 0.0249,-0.16585 0.037,-0.24867 -2.35371,-9.79562 -7.69662,-23.55064 -0.58802,-30.75192 0.25233,-0.2398 0.51004,-0.47693 0.7708,-0.71206 -2.36018,-2.25341 -5.6306,-3.9945 -8.60464,-5.82136 -7.35333,-4.51689 -15.59271,-7.65446 -22.8808,-11.05347 -0.14657,10.73227 -1.77434,23.27802 1.31366,32.75695 z m 29.95188,15.83053 c -0.005,0.0347 -0.0107,0.0697 -0.0154,0.10421 0.0354,0.008 0.0706,0.017 0.10594,0.0253 0.009,-0.009 0.0197,-0.0186 0.0296,-0.028 z m -0.0154,0.10421 -0.0381,0.16178 c 0.0207,-0.0199 0.0417,-0.039 0.0623,-0.0589 z"
           id="path5614"
           inkscape:connector-curvature="0" />
      </g>
      <path
         id="path5530"
         style="stroke-width:2.29295373"
         d="m 442.24947,319.49865 c 0,-3.9919 1.44469,-7.36246 4.33396,-10.11177 3.67283,-3.69676 8.38224,-5.54516 14.12819,-5.54516 5.17465,0 9.52492,1.14943 13.05085,3.44824 2.80766,1.89499 4.2115,3.92975 4.2115,6.10435 -0.20348,2.86411 -3.04476,4.42455 -5.21383,4.33081 -2.71499,-0.19922 -4.1663,-1.5531 -6.84908,-2.49345 -2.9184,-1.02292 -6.01098,-2.0306 -8.75083,-0.68087 -1.51179,0.84162 -2.47615,2.36354 -1.62738,4.00393 1.08886,2.05399 3.94766,3.3615 5.59503,3.99608 1.30593,0.48147 2.33433,0.86205 3.0852,1.14162 5.38683,1.94161 9.13311,3.94533 11.23892,6.01115 2.41588,2.53185 3.62384,5.3355 3.62384,8.41097 0,2.25224 -0.48155,4.41903 -1.44463,6.50042 -0.94682,2.08139 -2.30984,3.85988 -4.08913,5.33547 -3.39533,2.79588 -7.90881,4.19383 -13.54052,4.19383 -2.3996,0 -5.10118,-0.34956 -8.10473,-1.04846 -2.98728,-0.71454 -5.59092,-1.84064 -7.81092,-3.37837 -2.22006,-1.55326 -3.33004,-3.51039 -3.33004,-5.87136 0.41992,-3.777 3.84858,-4.77837 6.26669,-4.78153 4.74819,1.00162 14.89189,7.02809 18.66221,3.73549 1.75735,-1.61715 1.84106,-4.05173 0.0439,-5.39498 -0.93044,-0.51257 -1.83635,-1.38524 -3.79522,-2.08422 l -5.33791,-1.68816 c -4.08095,-1.50664 -8.32797,-3.84319 -10.54801,-5.83138 -2.20371,-2.00371 -3.79805,-4.8234 -3.79805,-8.30275 z m -38.38316,13.40847 c 4.0719,8.73973 12.11597,12.55042 21.17722,8.63639 l 4.07177,-2.41218 c 1.73527,-1.29804 4.19338,-2.76453 6.25744,-1.77093 0.99579,0.52811 1.78744,1.2426 2.37513,2.14351 0.58768,0.90091 0.8815,1.83288 0.8815,2.79589 0,2.62501 -1.97521,5.00927 -5.92555,7.15278 -4.81549,2.60952 -10.33292,3.91426 -16.55224,3.91426 -4.08097,0 -7.94154,-0.76112 -11.58172,-2.28333 -3.62389,-1.5222 -6.71721,-3.75114 -9.28002,-6.68683 -3.67287,-4.24037 -5.50929,-9.71567 -5.50929,-16.42579 0,-4.4734 1.11001,-8.62062 3.33004,-12.44165 2.23638,-3.82106 5.29702,-6.8499 9.18209,-9.08661 3.90137,-2.25227 8.18636,-3.37837 12.85492,-3.37837 4.47274,0 8.57816,1.05623 12.31632,3.16868 3.73811,2.11244 6.66824,4.97044 8.79029,8.574 2.12211,3.6036 3.18319,7.48677 3.18319,11.64952 0,2.22118 -0.48974,3.84435 -1.46916,4.86952 -0.9631,1.0096 -2.57917,1.50923 -4.84816,1.5144 z m 22.53269,-9.80765 c -1.05287,-5.63385 -5.62667,-8.64716 -10.09394,-9.05589 -7.53456,0.33023 -9.75783,3.38792 -11.7434,9.0788 z m -54.8248,-20.69969 v -12.6944 c 0,-2.19012 0.65295,-4.02296 1.95882,-5.49859 1.32229,-1.47562 3.14239,-2.21341 5.46031,-2.21341 2.26904,0 4.05645,0.73779 5.36231,2.21341 1.30593,1.46006 1.95891,3.29293 1.95891,5.49859 v 53.49254 c 0.0217,1.79188 0.0217,3.67554 -9.7e-4,5.3882 0.0108,0.81761 -0.008,1.6033 -9.8e-4,2.33956 -0.0181,0.69587 0.008,1.32695 -0.0254,1.94508 -1.28212,0.0875 -2.68016,-0.008 -3.93216,-0.003 -1.11849,9.8e-4 -2.21803,-0.0229 -3.28621,-0.0608 -3.73357,-0.28112 -6.01545,-3.3872 -7.17295,-6.31543 -5.22384,4.9029 -12.13623,6.10339 -17.55213,5.07682 -8.3808,-1.58856 -14.66109,-8.75009 -17.04601,-17.63813 -2.02577,-9.67081 1.15362,-20.12317 7.72938,-25.97395 3.74779,-3.12924 8.7904,-5.03114 13.54645,-5.32067 7.30939,0.26887 9.27638,1.9582 12.962,6.07055 0.0145,-2.26207 0.0417,-4.10719 0.0417,-6.30495 z m -10.84581,38.64291 c 7.24428,-0.73066 11.01105,-5.29055 12.20432,-11.6034 0.99023,-6.6184 -3.03327,-14.54372 -10.95809,-15.54231 -7.77077,-0.43922 -13.29763,6.00089 -13.23004,13.11012 0.099,6.92761 5.3458,14.26469 11.98381,14.03559 z m -40.92814,4.84936 c -1.77925,2.05029 -3.60755,3.53364 -5.48475,4.45012 -1.86095,0.91639 -4.14626,1.3746 -6.85599,1.3746 -5.33782,0 -10.15332,-1.77848 -14.44649,-5.33545 -5.81124,-4.92387 -8.71689,-11.54078 -8.71689,-19.85078 0,-7.67311 2.57095,-13.90951 7.71293,-18.70909 4.48906,-4.2715 9.54127,-6.40725 15.15662,-6.40725 6.27419,-0.0372 11.09024,3.22379 14.99424,7.00792 0.0905,-0.36909 0.0822,-1.68448 0.077,-2.83159 0.84672,-4.84124 8.52126,-5.55174 11.25514,-2.63449 0.96503,1.23885 1.00978,3.33555 1.04846,6.00704 v 34.15636 c 0.0631,2.00223 0.0108,3.92406 -0.0326,5.83158 -0.0181,0.85367 -0.0892,1.65637 -0.0562,2.54516 -0.46488,0.15069 -1.08261,0.0742 -1.89217,0.0784 -1.91635,0.008 -4.11972,0.0344 -5.26363,0.0344 -3.37901,0 -6.12234,-2.01856 -7.49354,-5.71536 z m -11.81501,-32.53799 c -2.7973,0.0781 -5.14921,1.0003 -6.99981,2.45161 -5.59446,5.1181 -5.77769,12.60915 -1.91854,18.39142 0.96696,1.52396 2.12088,2.64787 3.62075,3.45765 4.83051,2.58797 10.55584,1.51303 14.2165,-2.51259 3.33392,-4.59836 4.76618,-11.1349 1.97458,-15.85465 -2.2964,-3.77707 -6.77805,-6.01478 -10.8935,-5.93344 z"
         inkscape:connector-curvature="0"
         inkscape:export-xdpi="96.3228"
         inkscape:export-ydpi="96.3228"
         sodipodi:nodetypes="ccscccscccccsccscccccccccccccccsscsccsccsccscsccccccscscscccccccsccccccccccccscsccccccccccsccccccccccc" />
      <ellipse
         style="opacity:1;fill:none;fill-opacity:1;stroke:#010100;stroke-width:0.23841976;stroke-linecap:round;stroke-linejoin:round;stroke-miterlimit:4;stroke-dasharray:none;stroke-opacity:1;paint-order:markers stroke fill"
         id="path5653"
         cx="243.7795"
         cy="261.17209"
         rx="1.4131764"
         ry="1.3870915" />
      <ellipse
         ry="2.5199075"
         rx="2.7929332"
         cy="351.96677"
         cx="483.96213"
         id="ellipse5655"
         style="opacity:1;fill:none;fill-opacity:1;stroke:#010100;stroke-width:0.2212999;stroke-linecap:round;stroke-linejoin:round;stroke-miterlimit:4;stroke-dasharray:none;stroke-opacity:1;paint-order:markers stroke fill" />
      <text
         xml:space="preserve"
         style="font-style:normal;font-variant:normal;font-weight:normal;font-stretch:normal;font-size:4.12449026px;line-height:1.25;font-family:'Gotham Black';-inkscape-font-specification:'Gotham Black, ';letter-spacing:0px;word-spacing:0px;fill:#000000;fill-opacity:1;stroke:none;stroke-width:0.09666774"
         x="477.44043"
         y="357.17081"
         id="text5659"
         transform="scale(1.01057,0.98954054)"><tspan
           sodipodi:role="line"
           id="tspan5657"
           x="477.44043"
           y="357.17081"
           style="font-style:normal;font-variant:normal;font-weight:normal;font-stretch:normal;font-family:Helvetica-Normal;-inkscape-font-specification:Helvetica-Normal;stroke-width:0.09666774">R</tspan></text>
      <text
         transform="scale(0.96686121,1.0342746)"
         id="text5663"
         y="253.20615"
         x="251.38197"
         style="font-style:normal;font-variant:normal;font-weight:normal;font-stretch:normal;font-size:1.96494579px;line-height:1.25;font-family:'Gotham Black';-inkscape-font-specification:'Gotham Black, ';letter-spacing:0px;word-spacing:0px;fill:#000000;fill-opacity:1;stroke:none;stroke-width:0.04605342"
         xml:space="preserve"><tspan
           style="font-style:normal;font-variant:normal;font-weight:normal;font-stretch:normal;font-family:Helvetica-Normal;-inkscape-font-specification:Helvetica-Normal;stroke-width:0.04605342"
           y="253.20615"
           x="251.38197"
           id="tspan5661"
           sodipodi:role="line">R</tspan></text>
    </g>
  </g>
</svg>
